<?xml version="1.0" encoding="UTF-8"?><svg xmlns="http://www.w3.org/2000/svg" xmlns:xlink="http://www.w3.org/1999/xlink" height="76.0" preserveAspectRatio="xMidYMid meet" version="1.0" viewBox="0.0 0.0 122.0 76.0" width="122.0" zoomAndPan="magnify"><g id="change1_1"><path d="M16.595,4.239h88.811c0.553,0,1-0.447,1-1s-0.447-1-1-1H16.595c-0.553,0-1,0.447-1,1S16.042,4.239,16.595,4.239z" fill="inherit"/><path d="M105.405,25.131H86.421c-0.553,0-1,0.447-1,1s0.447,1,1,1h18.984c0.553,0,1-0.447,1-1S105.958,25.131,105.405,25.131z" fill="inherit"/><path d="M16.595,27.131h18.984c0.553,0,1-0.447,1-1s-0.447-1-1-1H16.595c-0.553,0-1,0.447-1,1S16.042,27.131,16.595,27.131z" fill="inherit"/><path d="M86.044,50.021h19.361c0.553,0,1-0.447,1-1s-0.447-1-1-1H86.044c-0.553,0-1,0.447-1,1S85.491,50.021,86.044,50.021z" fill="inherit"/><path d="M16.595,50.021h19.361c0.553,0,1-0.447,1-1s-0.447-1-1-1H16.595c-0.553,0-1,0.447-1,1S16.042,50.021,16.595,50.021z" fill="inherit"/><path d="M105.405,70.913H16.595c-0.553,0-1,0.447-1,1s0.447,1,1,1h88.811c0.553,0,1-0.447,1-1S105.958,70.913,105.405,70.913z" fill="inherit"/><path d="M61,57.348c10.998,0,19.946-9.06,19.946-20.195c0-11.137-8.948-20.196-19.946-20.196s-19.946,9.06-19.946,20.196 C41.054,48.288,50.002,57.348,61,57.348z M63.513,25.283v9.831h8.271L59.186,49.022L61,38.591h-7.541L63.513,25.283z" fill="inherit"/><path d="M61,64.131c14.694,0,26.648-12.103,26.648-26.979S75.694,10.174,61,10.174S34.352,22.276,34.352,37.152 S46.306,64.131,61,64.131z M61,14.956c12.102,0,21.946,9.957,21.946,22.196c0,12.238-9.845,22.195-21.946,22.195 s-21.946-9.957-21.946-22.195C39.054,24.913,48.898,14.956,61,14.956z" fill="inherit"/><path d="M118.396,0h-8.388c-1.987,0-3.604,1.616-3.604,3.604v0.119c0,1.987,1.616,3.604,3.604,3.604h8.388 c1.987,0,3.604-1.616,3.604-3.604V3.604C122,1.616,120.384,0,118.396,0z" fill="inherit"/><path d="M118.396,22.892h-8.388c-1.987,0-3.604,1.616-3.604,3.603v0.12c0,1.987,1.616,3.604,3.604,3.604h8.388 c1.987,0,3.604-1.616,3.604-3.604v-0.12C122,24.508,120.384,22.892,118.396,22.892z" fill="inherit"/><path d="M118.396,45.782h-8.388c-1.987,0-3.604,1.616-3.604,3.604v0.12c0,1.986,1.616,3.603,3.604,3.603h8.388 c1.987,0,3.604-1.616,3.604-3.603v-0.12C122,47.398,120.384,45.782,118.396,45.782z" fill="inherit"/><path d="M118.396,68.674h-8.388c-1.987,0-3.604,1.616-3.604,3.604v0.119c0,1.987,1.616,3.604,3.604,3.604h8.388 c1.987,0,3.604-1.616,3.604-3.604v-0.119C122,70.29,120.384,68.674,118.396,68.674z" fill="inherit"/><path d="M3.604,7.326h8.388c1.987,0,3.604-1.616,3.604-3.604V3.604C15.595,1.616,13.979,0,11.991,0H3.604C1.616,0,0,1.616,0,3.604 v0.119C0,5.71,1.616,7.326,3.604,7.326z" fill="inherit"/><path d="M3.604,30.218h8.388c1.987,0,3.604-1.616,3.604-3.604v-0.12c0-1.986-1.616-3.603-3.604-3.603H3.604 C1.616,22.892,0,24.508,0,26.494v0.12C0,28.602,1.616,30.218,3.604,30.218z" fill="inherit"/><path d="M3.604,53.108h8.388c1.987,0,3.604-1.616,3.604-3.603v-0.12c0-1.987-1.616-3.604-3.604-3.604H3.604 C1.616,45.782,0,47.398,0,49.386v0.12C0,51.492,1.616,53.108,3.604,53.108z" fill="inherit"/><path d="M11.991,68.674H3.604C1.616,68.674,0,70.29,0,72.277v0.119C0,74.384,1.616,76,3.604,76h8.388 c1.987,0,3.604-1.616,3.604-3.604v-0.119C15.595,70.29,13.979,68.674,11.991,68.674z" fill="inherit"/></g></svg>